<svg width="512" height="512" viewBox="0 0 512 512" fill="none" xmlns="http://www.w3.org/2000/svg">
  <rect width="512" height="512" rx="128" fill="#3b82f6"/>
  <path d="M128 256C128 185.307 185.307 128 256 128C326.693 128 384 185.307 384 256C384 326.693 326.693 384 256 384C185.307 384 128 326.693 128 256Z" fill="white"/>
  <path d="M256 160C200.772 160 156 204.772 156 260C156 315.228 200.772 360 256 360C311.228 360 356 315.228 356 260C356 204.772 311.228 160 256 160ZM256 320C218.386 320 188 289.614 188 252C188 214.386 218.386 184 256 184C293.614 184 324 214.386 324 252C324 289.614 293.614 320 256 320Z" fill="#3b82f6"/>
  <path d="M256 200C238.327 200 224 214.327 224 232C224 249.673 238.327 264 256 264C273.673 264 288 249.673 288 232C288 214.327 273.673 200 256 200Z" fill="#3b82f6"/>
</svg> 